<svg xmlns="http://www.w3.org/2000/svg" viewBox="0 0 238.21 31.51"><defs><style>.cls-1{fill:#e9475b;}.cls-2{opacity:0.7;}.cls-3{fill:#495057;}</style></defs><g id="Layer_2" data-name="Layer 2"><g id="Layer_1-2" data-name="Layer 1"><path class="cls-1" d="M128.05,10.77h0a7.25,7.25,0,0,0-2.24-1.51,7.13,7.13,0,0,0-2.74-.55h-2.63V11.2h2.63a4.56,4.56,0,0,1,0,9.12h-2.63v2.49h2.63a7.07,7.07,0,0,0,5-2.07,6.81,6.81,0,0,0,1.51-2.24,7,7,0,0,0-1.51-7.73Z"/><polygon class="cls-1" points="168.27 8.71 165.78 8.71 165.78 22.81 172.97 22.81 172.97 20.32 168.27 20.32 168.27 8.71"/><polygon class="cls-1" points="201.99 14.52 201.99 22.81 204.48 22.81 204.48 15.35 209.3 8.71 206.06 8.71 201.99 14.52"/><path class="cls-1" d="M191.36,10.77a7.25,7.25,0,0,0-2.24-1.51,7.13,7.13,0,0,0-5.49,0,7.25,7.25,0,0,0-2.24,1.51A6.92,6.92,0,0,0,179.88,13a7,7,0,0,0-.56,2.75v.41h2.49v-.41a4.56,4.56,0,1,1,4.56,4.56H186v2.49h.41a7,7,0,0,0,2.75-.56,6.92,6.92,0,0,0,2.24-1.51,7.14,7.14,0,0,0,1.51-2.24,7.13,7.13,0,0,0,0-5.49A7.25,7.25,0,0,0,191.36,10.77Z"/><path class="cls-1" d="M236.9,15.9a3.79,3.79,0,0,0,1-1.34,4.33,4.33,0,0,0,0-3.41,3.79,3.79,0,0,0-1-1.34,4.4,4.4,0,0,0-3-1.1h-4.28V11.2h4.28a2,2,0,0,1,1.31.45,1.73,1.73,0,0,1,0,2.41,2,2,0,0,1-1.31.45h-4.28V17h2.61L235,22.81h3.16l-3.09-6A4.08,4.08,0,0,0,236.9,15.9Z"/><path class="cls-1" d="M158.11,9.81a4.4,4.4,0,0,0-3-1.1h-4.28V11.2h4.28a1.94,1.94,0,0,1,1.31.45,1.73,1.73,0,0,1,0,2.41,1.94,1.94,0,0,1-1.31.45h-4.28v8.3h2.49V17h1.79a4.4,4.4,0,0,0,3-1.1,3.67,3.67,0,0,0,1-1.34,4.33,4.33,0,0,0,0-3.41A3.67,3.67,0,0,0,158.11,9.81Z"/><rect class="cls-1" x="215.26" y="8.71" width="8.02" height="2.49"/><rect class="cls-1" x="215.26" y="14.51" width="5.25" height="2.49"/><rect class="cls-1" x="215.26" y="20.32" width="8.02" height="2.49"/><rect class="cls-1" x="136.47" y="8.71" width="8.02" height="2.49"/><rect class="cls-1" x="136.47" y="14.51" width="5.25" height="2.49"/><rect class="cls-1" x="136.47" y="20.32" width="8.02" height="2.49"/><path class="cls-1" d="M96.72,11.05a2.67,2.67,0,0,1,.52.63l.05.08,1.38-.92,0-.07a4.25,4.25,0,0,0-.88-1,3.3,3.3,0,0,0-4,0,4.16,4.16,0,0,0-.87,1l0,.07,1.38.92,0-.08a2.5,2.5,0,0,1,.53-.63,1.6,1.6,0,0,1,1.89,0Z"/><path class="cls-1" d="M95.77,31.17l1.38.34v-1.7l1.66.4V27.07l1.66.36V24.32l.81.16,3.61-.56v1.93h1.66V23.67l1.94-.32-.25-1.64-1.69.28V19.18l-4.42-5a20.22,20.22,0,0,0-.9-5.75,19.24,19.24,0,0,0-2-4.43A15.14,15.14,0,0,0,96.3.43L95.77,0l-.52.43A15,15,0,0,0,92.3,4a19.24,19.24,0,0,0-2,4.43,20.57,20.57,0,0,0-.89,5.75l-4.43,5V22l-1.68-.28-.25,1.64,1.93.32v2.18h1.66V23.92l3.61.56.81-.16v3.11l1.66-.36v3.14l1.66-.4v1.7Zm6.36-14.47,2.76,3.11v2.44l-2.76.42Zm-12.72,6-2.76-.42V19.81l2.76-3.11Zm9.4,2.71-3-.65-3,.65V24l3-.61,3,.61ZM91.07,14.52A18.75,18.75,0,0,1,91.89,9a17.37,17.37,0,0,1,1.79-4,15.88,15.88,0,0,1,2.09-2.74,15.48,15.48,0,0,1,2.06,2.68,17.5,17.5,0,0,1,1.81,4,18.77,18.77,0,0,1,.83,5.59v8.11l-4.7-.94-4.7.94Zm4.7,11.9,1.38.3V28.1l-1.38-.34-1.38.34V26.72Z"/><g class="cls-2"><path class="cls-3" d="M0,16.11V14.28l5-1.73v1L.36,15.12v.15L5,16.82v1Z"/><path class="cls-3" d="M12.79,17.28a2.83,2.83,0,0,1-.33.91,2.46,2.46,0,0,1-.59.73,2.65,2.65,0,0,1-.84.47,3,3,0,0,1-1.07.17,3.52,3.52,0,0,1-1.18-.2,3,3,0,0,1-1-.6,2.86,2.86,0,0,1-.67-1,3.31,3.31,0,0,1-.24-1.3v-.14a3.38,3.38,0,0,1,.24-1.3,3,3,0,0,1,.67-1,3,3,0,0,1,1-.61A3.3,3.3,0,0,1,10,13.27a3.15,3.15,0,0,1,1,.17,2.54,2.54,0,0,1,.85.48,2.62,2.62,0,0,1,.6.72,2.9,2.9,0,0,1,.32.91l-.94.22a1.92,1.92,0,0,0-.17-.61,1.73,1.73,0,0,0-.94-.87,2.36,2.36,0,0,0-.78-.13,2.17,2.17,0,0,0-.81.16,2,2,0,0,0-.67.46,2.21,2.21,0,0,0-.45.7,2.35,2.35,0,0,0-.16.89v.14a2.38,2.38,0,0,0,.16.91,2,2,0,0,0,.45.68,2.11,2.11,0,0,0,.67.42,2.27,2.27,0,0,0,.83.15,1.83,1.83,0,0,0,.77-.14,2,2,0,0,0,.57-.35,1.85,1.85,0,0,0,.37-.51,2.78,2.78,0,0,0,.19-.6Z"/><path class="cls-3" d="M20.18,16.49a3.36,3.36,0,0,1-.24,1.31,2.88,2.88,0,0,1-.66,1,2.84,2.84,0,0,1-1,.6,3.32,3.32,0,0,1-2.27,0,2.84,2.84,0,0,1-.95-.6,3,3,0,0,1-.66-1,3.36,3.36,0,0,1-.24-1.31v-.14A3.36,3.36,0,0,1,14.45,15a3,3,0,0,1,.66-1,2.68,2.68,0,0,1,1-.6,3.12,3.12,0,0,1,2.25,0,2.68,2.68,0,0,1,1,.6,3,3,0,0,1,.66,1,3.36,3.36,0,0,1,.24,1.31Zm-3,2.18a2.06,2.06,0,0,0,.79-.15,1.89,1.89,0,0,0,.65-.43,2.43,2.43,0,0,0,.43-.69,2.63,2.63,0,0,0,.15-.91v-.14a2.56,2.56,0,0,0-.15-.89,2.3,2.3,0,0,0-.43-.69,2,2,0,0,0-1.44-.61,2.15,2.15,0,0,0-.8.16,2.06,2.06,0,0,0-.64.45,2.14,2.14,0,0,0-.44.69,2.56,2.56,0,0,0-.15.89v.14a2.63,2.63,0,0,0,.15.91,2.26,2.26,0,0,0,.44.69,1.76,1.76,0,0,0,.64.43A2.07,2.07,0,0,0,17.2,18.67Z"/><path class="cls-3" d="M26.52,18.48h-.14A1.76,1.76,0,0,1,26,19a2.21,2.21,0,0,1-.48.34,2,2,0,0,1-.55.19,2.13,2.13,0,0,1-.55.07,3.08,3.08,0,0,1-1.11-.2,2.65,2.65,0,0,1-.91-.59,2.82,2.82,0,0,1-.61-.95,3.56,3.56,0,0,1-.22-1.31v-.19A3.49,3.49,0,0,1,21.8,15a2.94,2.94,0,0,1,.62-1,2.39,2.39,0,0,1,.9-.59,2.82,2.82,0,0,1,1.09-.21,2.46,2.46,0,0,1,1.14.27,1.87,1.87,0,0,1,.83.84h.14V11h.94v8.4h-.94Zm-2,.19a2,2,0,0,0,.78-.15,1.87,1.87,0,0,0,.63-.45,2,2,0,0,0,.42-.69,2.31,2.31,0,0,0,.16-.89v-.14a2.35,2.35,0,0,0-.16-.89,2.1,2.1,0,0,0-.42-.69,2,2,0,0,0-.64-.45,2,2,0,0,0-.77-.16,1.92,1.92,0,0,0-.79.16,1.84,1.84,0,0,0-.63.44,2,2,0,0,0-.42.68,2.5,2.5,0,0,0-.15.88v.19a2.5,2.5,0,0,0,.15.9,2,2,0,0,0,.42.68,1.81,1.81,0,0,0,.63.43A2,2,0,0,0,24.53,18.67Z"/><path class="cls-3" d="M29.94,16.7a2.1,2.1,0,0,0,.55,1.43,1.92,1.92,0,0,0,1.44.54,2.6,2.6,0,0,0,.73-.09,1.71,1.71,0,0,0,.54-.27,1.33,1.33,0,0,0,.36-.39,2.26,2.26,0,0,0,.22-.47l.89.24A2.67,2.67,0,0,1,33.74,19a2.91,2.91,0,0,1-1.83.52,2.94,2.94,0,0,1-1.17-.22,2.69,2.69,0,0,1-.92-.63,2.83,2.83,0,0,1-.6-1A3.61,3.61,0,0,1,29,16.49V16.2A3,3,0,0,1,29.23,15a2.69,2.69,0,0,1,.61-.93,3.09,3.09,0,0,1,.93-.62,3.19,3.19,0,0,1,1.16-.22,2.8,2.8,0,0,1,1.27.27,2.69,2.69,0,0,1,.87.67,2.61,2.61,0,0,1,.51.86,2.64,2.64,0,0,1,.16.87v.76Zm2-2.54a2.05,2.05,0,0,0-1.34.48,1.87,1.87,0,0,0-.42.54,2.32,2.32,0,0,0-.21.66H33.8a1.57,1.57,0,0,0-.18-.69,1.7,1.7,0,0,0-.42-.53,1.82,1.82,0,0,0-.59-.34A2,2,0,0,0,31.93,14.16Z"/><path class="cls-3" d="M36.43,20H42v.86H36.43Z"/><path class="cls-3" d="M44.66,19.39h-.93V11h.93v3.39h.15a2,2,0,0,1,.86-.82,2.59,2.59,0,0,1,1.2-.29,2.66,2.66,0,0,1,1.05.21,2.63,2.63,0,0,1,.87.59,2.81,2.81,0,0,1,.6.94,3.71,3.71,0,0,1,.22,1.29v.24a3.42,3.42,0,0,1-.22,1.29,2.6,2.6,0,0,1-.59,1,2.46,2.46,0,0,1-.88.58,3,3,0,0,1-1.07.2,2.44,2.44,0,0,1-.59-.07,2.27,2.27,0,0,1-.57-.2,2.1,2.1,0,0,1-.5-.34,1.6,1.6,0,0,1-.38-.47h-.15Zm2-.72a2.06,2.06,0,0,0,.79-.15,1.93,1.93,0,0,0,.63-.42,2,2,0,0,0,.42-.67,2.56,2.56,0,0,0,.15-.89V16.3a2.41,2.41,0,0,0-.15-.87,1.91,1.91,0,0,0-.42-.67,1.79,1.79,0,0,0-.64-.44,1.85,1.85,0,0,0-.78-.16,1.89,1.89,0,0,0-1.41.61,2.12,2.12,0,0,0-.43.69,2.56,2.56,0,0,0-.16.89v.14a2.52,2.52,0,0,0,.16.89,2,2,0,0,0,.43.69,1.87,1.87,0,0,0,.63.45A2,2,0,0,0,46.66,18.67Z"/><path class="cls-3" d="M55.61,18.31h-.15a2.45,2.45,0,0,1-.75.92,2,2,0,0,1-1.19.33,2.45,2.45,0,0,1-.91-.16,1.82,1.82,0,0,1-.7-.49,2.16,2.16,0,0,1-.46-.8A3.44,3.44,0,0,1,51.29,17V13.44h.93v3.43a2,2,0,0,0,.39,1.37,1.48,1.48,0,0,0,1.17.43,1.64,1.64,0,0,0,1.34-.58,2.31,2.31,0,0,0,.49-1.55v-3.1h.93v7.42a.88.88,0,0,1-.92.93h-3.4v-.86h3.06q.33,0,.33-.36Z"/><path class="cls-3" d="M62.59,9.72l.84.26L59.94,20.67l-.85-.27Z"/><path class="cls-3" d="M66.1,17.83v-1l4.65-1.55v-.15L66.1,13.56v-1l5,1.73v1.83Z"/></g></g></g></svg>